<?xml version="1.0" encoding="utf-8"?>
<!-- Generator: Adobe Illustrator 19.0.0, SVG Export Plug-In . SVG Version: 6.00 Build 0)  -->
<svg version="1.1" id="layer" xmlns="http://www.w3.org/2000/svg" xmlns:xlink="http://www.w3.org/1999/xlink" x="0px" y="0px"
	 viewBox="-153 -46 652 652" style="enable-background:new -153 -46 652 652;" xml:space="preserve">
<style type="text/css">
	.st0{clip-path:url(#SVGID_2_);fill:url(#SVGID_3_);}
</style>
<g>
	<defs>
		<path id="SVGID_1_" d="M-94.4,347.1c19.2,22.8,47.9,37.3,80.1,37.3c29,0,55.2-11.8,74.2-30.9c-4.5,0.8-8.9,1.3-12.9,1.3
			c-39.6,0-81.3-23-107-56.8L-94.4,347.1z M-50.5,284.4c22.5,27.6,57.9,48.4,92.5,48.4c9.2,0,17.1-1.7,23.7-4.9L12.2,194.8
			L-50.5,284.4z M-118.9,280c0,21.8,6.7,42,18.1,58.7l34.6-49.4C-78,271-85.1,250.2-85.1,228.5c0-19.6,11.2-35,17.2-38.3v0
			C-98.4,208.4-118.9,241.8-118.9,280 M79.1,317.2c7.3-9.1,11-21.9,11-37.6c-0.2-47.1-31.5-86.9-74.4-99.7L79.1,317.2z M-74.3,226.2
			c0,16.6,6.6,34,17.4,49.7l68.1-97.3c-8.2-2.1-16.8-3.2-25.6-3.2C-60.3,175.5-74.3,202.5-74.3,226.2"/>
	</defs>
	<clipPath id="SVGID_2_">
		<use xlink:href="#SVGID_1_"  style="overflow:visible;"/>
	</clipPath>
	
		<linearGradient id="SVGID_3_" gradientUnits="userSpaceOnUse" x1="-147.6929" y1="680.4534" x2="-142.9341" y2="680.4534" gradientTransform="matrix(40.3195 -17.4478 -17.4478 -40.3195 17717.0078 25180.1328)">
		<stop  offset="0" style="stop-color:#601C81"/>
		<stop  offset="0.1812" style="stop-color:#691F7E"/>
		<stop  offset="0.4765" style="stop-color:#812774"/>
		<stop  offset="0.8471" style="stop-color:#A93465"/>
		<stop  offset="1" style="stop-color:#BB3A5E"/>
	</linearGradient>
	<polygon class="st0" points="-195.1,208.4 57.2,99.3 166.3,351.5 -85.9,460.7 	"/>
</g>
<path d="M468.1,299.1c0-1.2,0.3-2.4,0.9-3.4c0.6-1.1,1.4-1.9,2.4-2.5c1-0.6,2.1-0.9,3.3-0.9s2.3,0.3,3.3,0.9c1,0.6,1.8,1.4,2.4,2.5
	c0.6,1.1,0.9,2.2,0.9,3.4c0,1.2-0.3,2.4-0.9,3.5c-0.6,1.1-1.4,1.9-2.4,2.5c-1,0.6-2.1,0.9-3.3,0.9c-1.2,0-2.3-0.3-3.3-0.9
	c-1-0.6-1.8-1.4-2.4-2.5C468.4,301.5,468.1,300.3,468.1,299.1 M469.3,299.1c0,1,0.2,1.9,0.7,2.8c0.5,0.9,1.1,1.6,1.9,2.1
	c0.8,0.5,1.8,0.8,2.8,0.8c1,0,1.9-0.3,2.7-0.8s1.5-1.2,1.9-2.1c0.5-0.9,0.7-1.8,0.7-2.8c0-1-0.2-2-0.7-2.8c-0.5-0.9-1.1-1.6-1.9-2.1
	c-0.8-0.5-1.7-0.8-2.7-0.8c-1,0-1.9,0.3-2.7,0.8c-0.8,0.5-1.5,1.2-2,2.1C469.5,297.1,469.3,298,469.3,299.1 M473.3,299.8v3.1h-1.4
	v-7.8h2.6c0.9,0,1.7,0.2,2.2,0.6c0.5,0.4,0.8,1,0.8,1.8c0,0.7-0.3,1.2-1,1.6c0.4,0.2,0.6,0.5,0.7,0.8c0.1,0.3,0.2,0.8,0.2,1.3
	c0,0.5,0,0.9,0,1.1c0,0.2,0.1,0.4,0.1,0.5v0.1h-1.4c-0.1-0.2-0.1-0.8-0.1-1.8c0-0.5-0.1-0.8-0.3-1c-0.2-0.2-0.5-0.3-1-0.3H473.3z
	 M473.3,298.5h1.2c0.5,0,0.8-0.1,1.2-0.3c0.3-0.2,0.5-0.5,0.5-0.8c0-0.4-0.1-0.7-0.3-0.9c-0.2-0.2-0.6-0.3-1.2-0.3h-1.3V298.5z
	 M188.3,350.6c-4.9,6.3-12.7,10.4-21.4,10.4c-15.8,0-27.8-12.9-27.8-28.9c0-16,12.1-29,27.8-29c8.6,0,16,4,21.2,9.9l9.4-7.4
	c-7-8.7-17.9-14.3-30.6-14.3c-22.4,0-40,18.2-40,40.7c0,22.4,17.6,40.6,40,40.6c12.9,0,23.9-5.6,30.8-14.6L188.3,350.6z
	 M273.9,302.5c-6.9-6.9-16.7-11.2-27.6-11.2c-22.5,0-40.1,18.2-40.1,40.7c0,22.4,17.6,40.6,40.1,40.6c22.7,0,37.8-13.1,37.8-41.4
	h-36.2v10.5h22.2c-0.6,11.8-10.9,19.4-23.8,19.4c-15.8,0-28-13.1-28-29.1c0-16,12.2-29.1,28-29.1c7.2,0,13.8,2.9,18.6,7.5
	L273.9,302.5z M343.4,348.8l-26.9-56.5h-10.8l-9.7,79.2h12.2l6.8-56.6l23.4,47.7h10.4l23.2-47.7l6.8,56.6h12.2l-9.7-79.2h-10.9
	L343.4,348.8z M454.4,351.7h-32l-7.6,19.8h-13l29.9-79.3h13.2l29.9,79.3H462L454.4,351.7z M426.5,340.8h23.7l-11.8-33.2L426.5,340.8
	z M64.9,374.1v1.5h3v8.6h1.6v-8.6h3v-1.5H64.9z M82.9,374.1l-3.4,7.2l-3.4-7.2h-1.4l-1.2,10.1H75l0.9-7.2l3,6.1h1.3l3-6.1l0.9,7.2
	h1.6l-1.2-10.1H82.9z"/>
</svg>
